<svg width="149" height="149" viewBox="0 0 149 149" fill="none" xmlns="http://www.w3.org/2000/svg">
<g clip-path="url(#clip0)">
<path d="M108.646 149C86.3952 149 68.2917 130.896 68.2917 108.646C68.2917 86.395 86.3952 68.2915 108.646 68.2915C130.897 68.2915 149 86.395 149 108.646C149 130.896 130.897 149 108.646 149ZM108.646 74.4998C89.816 74.4998 74.5001 89.8158 74.5001 108.646C74.5001 127.476 89.816 142.791 108.646 142.791C127.476 142.791 142.792 127.476 142.792 108.646C142.792 89.8158 127.476 74.4998 108.646 74.4998Z" fill="#FFBC3B"/>
<path d="M102.437 124.167C101.618 124.167 100.823 123.838 100.24 123.26L87.823 110.844C86.6124 109.633 86.6124 107.665 87.823 106.454C89.0336 105.244 91.0017 105.244 92.2123 106.454L102.282 116.524L121.826 94.1867C122.956 92.8892 124.918 92.7588 126.209 93.8949C127.5 95.0248 127.631 96.9867 126.501 98.278L104.772 123.111C104.207 123.757 103.394 124.142 102.537 124.167C102.506 124.167 102.468 124.167 102.437 124.167Z" fill="#FFBC3B"/>
<path d="M62.1267 65.1875C60.9844 65.1875 59.8917 64.5604 59.3454 63.474C58.5817 61.9405 59.2026 60.0718 60.736 59.3082L119.678 29.8186C120.634 29.3344 121.776 29.384 122.695 29.9552C123.608 30.5201 124.167 31.5197 124.167 32.5937V58.9792C124.167 60.6927 122.776 62.0833 121.062 62.0833C119.349 62.0833 117.958 60.6927 117.958 58.9792V37.6163L63.5112 64.8584C63.0642 65.0819 62.5923 65.1875 62.1267 65.1875Z" fill="#DE1212"/>
<path d="M58.9357 124.167C58.4266 124.167 57.9051 124.042 57.4271 123.776L1.58933 92.7339C0.614625 92.1875 0 91.1507 0 90.0208V32.5937C0 31.5197 0.55875 30.5201 1.47138 29.9552C2.384 29.384 3.53875 29.3344 4.48863 29.8186L63.4305 59.3082C64.964 60.078 65.5848 61.9405 64.8212 63.474C64.0576 65.0074 62.1889 65.6283 60.6554 64.8647L6.20833 37.6163V88.1956L60.4505 118.349C61.9468 119.181 62.4869 121.069 61.655 122.571C61.0838 123.589 60.0284 124.167 58.9357 124.167Z" fill="#DE1212"/>
<path d="M121.062 35.6973C120.597 35.6973 120.125 35.5917 119.678 35.3682L62.0459 6.57396L4.4946 35.3682C2.96114 36.1256 1.09243 35.5172 0.328808 33.9837C-0.434817 32.4503 0.179808 30.5816 1.71327 29.818L60.6552 0.328379C61.5306 -0.106204 62.5611 -0.106204 63.4303 0.328379L122.447 29.818C123.98 30.5878 124.601 32.4503 123.837 33.9837C123.297 35.0702 122.198 35.6973 121.062 35.6973Z" fill="#DE1212"/>
<path d="M31.3085 72.8796C29.595 72.8796 28.2043 71.4889 28.2043 69.7754V46.6928C28.2043 45.5195 28.8686 44.4454 29.9178 43.9177L88.8597 14.4281C90.3932 13.6645 92.2557 14.2853 93.0255 15.8188C93.7954 17.3523 93.1683 19.2148 91.6349 19.9846L34.4127 48.6174V69.7816C34.4127 71.4951 33.0282 72.8796 31.3085 72.8796Z" fill="#DE1212"/>
</g>
<defs>
<clipPath id="clip0">
<rect width="149" height="149" fill="white"/>
</clipPath>
</defs>
</svg>
