<svg width="22" height="22" viewBox="0 0 22 22" fill="none" xmlns="http://www.w3.org/2000/svg">
<path d="M16.586 9.88281C17.0606 9.88281 17.4453 9.49806 17.4453 9.02344C17.4453 8.54882 17.0606 8.16406 16.586 8.16406C16.1113 8.16406 15.7266 8.54882 15.7266 9.02344C15.7266 9.49806 16.1113 9.88281 16.586 9.88281Z" fill="#DE1212"/>
<path d="M18.5625 1.71875H17.4453V0.859375C17.4453 0.384742 17.0606 0 16.586 0C16.1113 0 15.7266 0.384742 15.7266 0.859375V1.71875H11.8164V0.859375C11.8164 0.384742 11.4317 0 10.957 0C10.4824 0 10.0977 0.384742 10.0977 0.859375V1.71875H6.23048V0.859375C6.23048 0.384742 5.84574 0 5.37111 0C4.89648 0 4.51173 0.384742 4.51173 0.859375V1.71875H3.43752C1.54208 1.71875 1.52588e-05 3.26081 1.52588e-05 5.15625V18.5625C1.52588e-05 20.4579 1.54208 22 3.43752 22H10.0117C10.4864 22 10.8711 21.6153 10.8711 21.1406C10.8711 20.666 10.4864 20.2812 10.0117 20.2812H3.43752C2.4898 20.2812 1.71877 19.5102 1.71877 18.5625V5.15625C1.71877 4.20853 2.4898 3.4375 3.43752 3.4375H4.51173V4.29688C4.51173 4.77151 4.89648 5.15625 5.37111 5.15625C5.84574 5.15625 6.23048 4.77151 6.23048 4.29688V3.4375H10.0977V4.29688C10.0977 4.77151 10.4824 5.15625 10.957 5.15625C11.4317 5.15625 11.8164 4.77151 11.8164 4.29688V3.4375H15.7266V4.29688C15.7266 4.77151 16.1113 5.15625 16.586 5.15625C17.0606 5.15625 17.4453 4.77151 17.4453 4.29688V3.4375H18.5625C19.5102 3.4375 20.2813 4.20853 20.2813 5.15625V10.0547C20.2813 10.5293 20.666 10.9141 21.1406 10.9141C21.6153 10.9141 22 10.5293 22 10.0547V5.15625C22 3.26081 20.458 1.71875 18.5625 1.71875Z" fill="#DE1212"/>
<path d="M16.8008 11.6016C13.9339 11.6016 11.6016 13.9339 11.6016 16.8008C11.6016 19.6677 13.9339 22 16.8008 22C19.6677 22 22 19.6677 22 16.8008C22 13.9339 19.6677 11.6016 16.8008 11.6016ZM16.8008 20.2812C14.8817 20.2812 13.3203 18.7199 13.3203 16.8008C13.3203 14.8816 14.8817 13.3203 16.8008 13.3203C18.7199 13.3203 20.2813 14.8816 20.2813 16.8008C20.2813 18.7199 18.7199 20.2812 16.8008 20.2812Z" fill="#FFBC3B"/>
<path d="M18.0469 15.9414H17.6602V15.0391C17.6602 14.5644 17.2754 14.1797 16.8008 14.1797C16.3262 14.1797 15.9414 14.5644 15.9414 15.0391V16.8008C15.9414 17.2754 16.3262 17.6602 16.8008 17.6602H18.0469C18.5215 17.6602 18.9063 17.2754 18.9063 16.8008C18.9063 16.3261 18.5215 15.9414 18.0469 15.9414Z" fill="#FFBC3B"/>
<path d="M12.8477 9.88281C13.3223 9.88281 13.707 9.49806 13.707 9.02344C13.707 8.54882 13.3223 8.16406 12.8477 8.16406C12.3731 8.16406 11.9883 8.54882 11.9883 9.02344C11.9883 9.49806 12.3731 9.88281 12.8477 9.88281Z" fill="#DE1212"/>
<path d="M9.10939 13.6211C9.58401 13.6211 9.96877 13.2363 9.96877 12.7617C9.96877 12.2871 9.58401 11.9023 9.10939 11.9023C8.63477 11.9023 8.25002 12.2871 8.25002 12.7617C8.25002 13.2363 8.63477 13.6211 9.10939 13.6211Z" fill="#DE1212"/>
<path d="M5.37111 9.88281C5.84573 9.88281 6.23048 9.49806 6.23048 9.02344C6.23048 8.54882 5.84573 8.16406 5.37111 8.16406C4.89649 8.16406 4.51173 8.54882 4.51173 9.02344C4.51173 9.49806 4.89649 9.88281 5.37111 9.88281Z" fill="#DE1212"/>
<path d="M5.37111 13.6211C5.84573 13.6211 6.23048 13.2363 6.23048 12.7617C6.23048 12.2871 5.84573 11.9023 5.37111 11.9023C4.89649 11.9023 4.51173 12.2871 4.51173 12.7617C4.51173 13.2363 4.89649 13.6211 5.37111 13.6211Z" fill="#DE1212"/>
<path d="M5.37111 17.3594C5.84573 17.3594 6.23048 16.9746 6.23048 16.5C6.23048 16.0254 5.84573 15.6406 5.37111 15.6406C4.89649 15.6406 4.51173 16.0254 4.51173 16.5C4.51173 16.9746 4.89649 17.3594 5.37111 17.3594Z" fill="#DE1212"/>
<path d="M9.10939 17.3594C9.58401 17.3594 9.96877 16.9746 9.96877 16.5C9.96877 16.0254 9.58401 15.6406 9.10939 15.6406C8.63477 15.6406 8.25002 16.0254 8.25002 16.5C8.25002 16.9746 8.63477 17.3594 9.10939 17.3594Z" fill="#DE1212"/>
<path d="M9.10939 9.88281C9.58401 9.88281 9.96877 9.49806 9.96877 9.02344C9.96877 8.54882 9.58401 8.16406 9.10939 8.16406C8.63477 8.16406 8.25002 8.54882 8.25002 9.02344C8.25002 9.49806 8.63477 9.88281 9.10939 9.88281Z" fill="#DE1212"/>
</svg>
