<svg width="186" height="434" viewBox="0 0 186 434" fill="none" xmlns="http://www.w3.org/2000/svg">
<path d="M101.008 210.098L100.728 207.902C100.728 207.902 103.859 205.659 105.587 202.014C107.269 198.37 111.615 200.799 111.615 200.799V225.75V271.727C111.615 282.24 114.138 290.791 103.064 300.322C101.663 301.537 99.8403 303.313 97.7844 305.602C90.4954 274.25 84.5614 235.843 82.1784 219.489C89.5142 218.415 96.2892 214.63 101.008 210.098Z" fill="#3D3D3D"/>
<path d="M35.594 206.406C30.7814 215.751 35.594 233.086 35.594 233.086L65.4977 249.767L76.0574 242.711L72.4129 219.302L40.5935 203.463L35.594 206.406Z" fill="#585858"/>
<path d="M165.628 216.826C165.628 216.826 165.255 217.387 164.507 218.274L164.46 218.368L163.199 219.629L162.358 220.47C159.881 222.807 156.003 225.517 151.004 226.358C150.069 226.545 149.135 226.591 148.107 226.638L144.322 218.461C148.34 217.433 155.91 214.957 162.124 209.911L165.628 216.826Z" fill="white"/>
<path d="M171.001 246.823C159.834 252.944 151.097 238.739 151.003 226.357C156.05 225.516 159.881 222.806 162.357 220.47C162.357 220.47 165.348 226.357 163.572 230.376C161.797 234.394 167.076 241.263 171.235 230.376C171.796 228.927 172.076 227.713 172.123 226.591L172.216 226.638C172.216 226.638 182.168 240.655 171.001 246.823Z" fill="#FFD5B7"/>
<path d="M73.8611 389.846C71.8987 398.771 50.1718 392.37 35.1733 388.398C20.128 384.38 22.511 383.819 23.2118 374.568C23.4922 371.203 24.4734 369.662 26.062 369.054C28.8655 368.073 33.5379 370.175 39.5654 371.297C42.8361 371.904 45.0789 371.577 46.7609 371.25C49.9849 370.596 51.3866 369.708 54.6574 374.24C59.7036 381.202 75.0759 384.473 73.8611 389.846Z" fill="#4095E7"/>
<path d="M109.98 388.491L111.428 398.864L107.97 419.002L96.1958 409.097L92.4111 399.518L109.98 388.491Z" fill="#FFD5B7"/>
<path d="M117.923 190.006C114.418 199.958 110.634 201.5 103.064 208.182C103.064 208.089 103.064 207.995 103.064 207.902C103.018 204.304 103.018 200.426 102.971 196.314C102.737 165.803 102.457 123.471 103.158 113.378C104.279 97.2115 99.4198 79.9235 99.4198 79.9235C99.4198 79.9235 112.222 81.4186 119.698 86.3247C127.221 91.184 136.285 149.87 141.892 164.541C147.499 179.213 164.086 208.182 164.086 208.182C163.432 208.789 162.778 209.35 162.077 209.911C155.863 214.957 148.294 217.433 144.275 218.461C142.546 218.929 141.472 219.115 141.472 219.115C133.575 207.061 117.035 165.663 117.035 165.663L117.923 190.006Z" fill="white"/>
<path d="M111.568 393.117C111.194 393.537 110.773 393.958 110.306 394.425C106.381 398.49 99.7463 403.957 95.5412 404.471C93.8123 404.705 92.5041 404.097 91.9901 402.182C90.3547 396.528 82.0378 362.372 75.4497 332.282C73.7676 324.712 72.2257 317.423 70.9174 310.929C69.9829 306.443 68.7681 302.145 67.2262 297.986C62.4603 284.95 55.2647 273.549 48.9102 262.989C42.5089 252.383 36.9487 242.711 35.547 233.133C41.9482 236.263 54.2835 240.749 69.8895 238.74C69.8895 238.74 71.0576 231.264 72.4126 219.349C73.02 219.442 73.5807 219.583 74.1881 219.629C76.8514 220.003 79.5147 219.956 82.0845 219.536C84.4675 235.889 90.4015 274.297 97.6905 305.649C98.2512 307.938 98.8119 310.181 99.3726 312.424C109.792 354.055 111.568 393.117 111.568 393.117Z" fill="#585858"/>
<path d="M75.4497 332.235C64.2358 346.346 53.9097 360.223 52.3678 363.026C51.5735 364.475 49.8447 365.783 47.602 366.764C41.6679 369.428 32.2763 369.708 29.1925 363.914C29.0524 363.634 28.9122 363.354 28.772 363.026C25.8751 355.597 51.994 319.993 67.2262 297.939C68.7681 302.098 70.0297 306.396 70.9174 310.882C72.2257 317.423 73.8144 324.666 75.4497 332.235Z" fill="#3D3D3D"/>
<path d="M103.157 113.378C102.457 123.47 102.69 165.803 102.971 196.314C103.017 200.426 103.064 204.677 103.064 208.275C98.3915 213.742 90.6353 218.274 82.1314 219.536C79.5616 219.956 76.8983 219.956 74.235 219.629C73.6276 219.536 73.0669 219.442 72.4595 219.349C72.5529 218.087 72.6931 216.826 72.88 215.471C76.5712 179.82 80.683 112.724 62.7408 82.5866C62.9744 82.7735 65.6377 84.5957 69.7028 86.0909C76.0105 88.3337 85.7292 89.7821 95.5413 83.1005C96.8496 82.2595 98.1579 81.1848 99.4195 80.0167C99.4195 79.9233 104.279 97.2113 103.157 113.378Z" fill="white"/>
<path d="M48.3032 371.484C46.6211 371.951 44.4251 372.465 41.1077 372.091C35.0335 371.437 30.1741 369.708 27.4641 370.923C27.7912 368.867 28.3519 366.251 29.2397 363.961C32.3235 369.708 41.7151 369.428 47.6491 366.811C47.5556 368.353 47.836 369.942 48.3032 371.484Z" fill="#FFD5B7"/>
<path d="M114.232 20.1627C114.746 28.6665 114.325 34.0398 114.325 34.0398C114.325 34.0398 114.325 40.4411 114.232 47.8235C114.091 57.3086 110.867 69.1299 110.167 70.5316C108.905 73.008 100.261 73.8957 95.4951 72.6809L99.3732 79.9699C93.2991 98.0523 73.301 93.8938 62.6946 82.5865L68.4417 64.8779C68.4417 64.8779 58.3959 59.3645 56.9007 44.8332C55.4056 30.2551 56.1532 7.68725 78.2071 5.44448C100.261 3.20171 113.718 11.6121 114.232 20.1627Z" fill="#FFD5B7"/>
<path d="M70.9179 59.5984C68.3948 55.8604 65.4044 46.5623 69.6564 43.0579C73.9083 39.6003 78.1602 56.3277 78.1602 56.3277C78.1602 56.3277 77.6462 45.8147 79.9357 40.4414C82.1785 35.0681 88.9535 37.7781 95.495 32.2646C102.036 26.7511 111.521 32.2646 111.521 32.2646C111.521 32.2646 114.185 48.5714 114.138 49.319C114.278 41.3291 114.278 34.0401 114.278 34.0401C114.278 34.0401 114.699 28.7135 114.185 20.163C113.671 11.6124 100.261 3.15529 78.1602 5.44478C56.1063 7.68755 55.3587 30.2554 56.8539 44.8335C58.3491 59.3648 68.3948 64.8782 68.3948 64.8782C68.3948 64.8782 73.441 63.3831 70.9179 59.5984Z" fill="#3D3D3D"/>
<path d="M111.427 398.864C111.427 398.864 117.969 405.219 131.519 411.339C145.77 417.787 157.825 422.086 151.984 428.207C141.471 439.14 114.511 429.095 102.363 426.852C91.336 424.796 94.56 422.086 95.4944 419.049C96.4289 415.965 91.7565 409.33 96.1953 409.143C100.587 408.863 107.549 406.901 111.427 398.864Z" fill="#4095E7"/>
<path d="M101.99 44.1792C101.99 44.1792 78.0668 29.2273 56.4334 35.5351C56.4334 35.5351 51.2002 22.8261 62.7412 7.73411C74.2354 -7.4046 117.969 0.0713096 115.914 27.3116L128.856 39.2264C128.856 39.2264 111.568 32.2644 101.99 44.1792Z" fill="#4095E7"/>
<path d="M62.6941 82.54C62.6474 82.54 62.6474 82.54 62.6941 82.54C61.8063 81.0448 63.722 83.8015 62.6941 82.54Z" fill="#4095E7"/>
<path d="M72.8802 215.424C72.74 216.733 72.5998 218.041 72.4597 219.302C57.6947 217.76 39.5189 208.556 33.1644 205.098L38.8181 143.375C23.7728 158.42 62.6943 82.54 62.6943 82.54C80.6364 112.677 76.5714 179.82 72.8802 215.424Z" fill="white"/>
<path d="M186 169.167L185.86 222.62L125.772 257.523L125.912 204.07L186 169.167Z" fill="#FCC578"/>
<path d="M182.729 178.278L182.683 193.884L165.114 204.07L165.161 188.464L182.729 178.278Z" fill="#FCFFFF"/>
<path d="M125.912 204.07L125.772 257.523L65.2641 222.62L65.451 169.167L125.912 204.07Z" fill="#FBD570"/>
<path d="M84.2808 221.732V228.46L69.7495 220.097L69.7962 213.322L84.2808 221.732Z" fill="#EAEAEA"/>
<path d="M186 169.167L125.912 204.07L65.451 169.167L125.492 134.217L186 169.167Z" fill="#FAE567"/>
<path d="M90.4484 237.151L100.728 243.085V189.539L90.4484 183.605V237.151Z" fill="#EAEAEA"/>
<path d="M150.583 148.702L90.4485 183.605L100.728 189.212L160.815 154.262L150.583 148.702Z" fill="white"/>
<path d="M161.329 237.151L151.097 243.085V189.539L161.329 183.605V237.151Z" fill="#E0E0E0"/>
<path d="M101.242 148.702L161.329 183.605L151.097 189.212L91.0091 154.262L101.242 148.702Z" fill="white"/>
<path d="M101.195 171.129C105.774 171.69 105.681 177.157 105.681 177.157C105.681 177.157 118.156 174.353 117.175 186.174C116.194 197.996 96.7562 201.64 87.6916 194.351C83.393 190.66 86.3366 179.119 89.9344 177.203C89.8877 177.203 96.616 170.569 101.195 171.129Z" fill="#FFD5B7"/>
<path d="M88.5791 195.893L81.2901 195.566C81.2901 195.566 81.15 195.239 80.9631 194.632C80.0753 191.922 78.1129 184.025 82.0377 177.904C82.3648 177.39 90.0276 176.736 90.0276 176.736C89.1865 177.811 87.925 179.727 87.1774 182.297C86.57 184.259 86.2429 186.548 86.5233 189.212C86.8036 191.221 87.411 193.464 88.5791 195.893Z" fill="white"/>
<path d="M38.8182 143.375C38.8182 143.375 35.2204 146.973 29.8003 158.794C24.6607 169.915 70.1235 177.951 85.4958 176.596C85.4958 176.596 78.4872 190.24 84.3277 196.034C84.3277 196.034 47.0417 205.285 18.0258 191.782C-8.28005 179.493 -0.991043 164.027 11.7647 131.087C24.5205 98.0991 44.7054 82.5399 62.6943 82.5399L48.2565 116.509L38.8182 143.375Z" fill="white"/>
</svg>
