<?xml version="1.0" encoding="UTF-8"?>
<!DOCTYPE svg PUBLIC "-//W3C//DTD SVG 1.1//EN" "http://www.w3.org/Graphics/SVG/1.1/DTD/svg11.dtd">
<svg xmlns="http://www.w3.org/2000/svg" version="1.1" width="2856px" height="967px" style="shape-rendering:geometricPrecision; text-rendering:geometricPrecision; image-rendering:optimizeQuality; fill-rule:evenodd; clip-rule:evenodd" xmlns:xlink="http://www.w3.org/1999/xlink">
<g><path style="opacity:0.988" fill="#f0c131" d="M 2421.5,13.5 C 2438.43,12.0523 2451.93,18.0523 2462,31.5C 2488.56,96.5239 2514.73,161.691 2540.5,227C 2563.29,217.612 2585.96,207.612 2608.5,197C 2637.24,187.784 2657.07,197.284 2668,225.5C 2698.72,304.612 2729.72,383.612 2761,462.5C 2769.71,492.728 2760.87,516.228 2734.5,533C 2623.9,586.635 2513.23,640.301 2402.5,694C 2370.83,704.557 2346.33,695.724 2329,667.5C 2263.87,502.788 2199.54,337.788 2136,172.5C 2134.29,155.433 2140.12,141.6 2153.5,131C 2237.08,93.4726 2320.75,56.1392 2404.5,19C 2410.13,16.6232 2415.79,14.7899 2421.5,13.5 Z M 2425.5,55.5 C 2427.28,56.5738 2428.45,58.2404 2429,60.5C 2453.37,122.071 2477.87,183.571 2502.5,245C 2419.75,282.694 2336.92,320.194 2254,357.5C 2228.19,294.033 2203.03,230.2 2178.5,166C 2206.51,152.667 2234.84,139.833 2263.5,127.5C 2275.48,152.254 2286.98,177.254 2298,202.5C 2298.41,202.957 2298.91,203.291 2299.5,203.5C 2324.98,191.733 2350.48,180.066 2376,168.5C 2375.98,165.756 2375.31,163.089 2374,160.5C 2364,138.5 2354,116.5 2344,94.5C 2343.25,93.365 2343.42,92.365 2344.5,91.5C 2371.71,79.7244 2398.71,67.7244 2425.5,55.5 Z M 2625.5,234.5 C 2658.49,316.988 2690.82,399.821 2722.5,483C 2721.86,488.972 2718.86,493.305 2713.5,496C 2604.17,549 2494.83,602 2385.5,655C 2377.72,657.528 2371.55,655.361 2367,648.5C 2334.24,564.867 2301.91,481.2 2270,397.5C 2313.41,376.961 2357.08,356.961 2401,337.5C 2403.37,339.21 2405.04,341.544 2406,344.5C 2415.56,366.618 2425.39,388.618 2435.5,410.5C 2436.17,410.833 2436.83,411.167 2437.5,411.5C 2463.06,400.718 2488.4,389.385 2513.5,377.5C 2514.61,376.277 2514.78,374.944 2514,373.5C 2503.07,349.542 2492.24,325.542 2481.5,301.5C 2529.56,279.135 2577.56,256.801 2625.5,234.5 Z"/></g>
<g><path style="opacity:0.987" fill="#364a88" d="M 1860.5,99.5 C 1864.85,99.3343 1869.18,99.501 1873.5,100C 1927.99,116.871 1982.32,134.205 2036.5,152C 2061.2,163.703 2078.7,182.203 2089,207.5C 2154.27,384.654 2219.94,561.654 2286,738.5C 2313.75,734.252 2339.25,740.085 2362.5,756C 2371.34,763.678 2379.68,771.845 2387.5,780.5C 2506.5,724.667 2625.5,668.833 2744.5,613C 2761.03,592.103 2777.2,570.937 2793,549.5C 2803.33,540.167 2813.67,540.167 2824,549.5C 2827.82,556.473 2828.49,563.807 2826,571.5C 2805.95,597.757 2785.79,623.924 2765.5,650C 2645.29,706.273 2524.95,762.273 2404.5,818C 2411.05,858.563 2399.38,892.896 2369.5,921C 2334.02,948.358 2295.68,953.025 2254.5,935C 2208.32,908.136 2190.16,868.302 2200,815.5C 2206.99,788.871 2221.99,768.205 2245,753.5C 2245.67,752.167 2245.67,750.833 2245,749.5C 2178.8,571.911 2112.8,394.244 2047,216.5C 2040.06,204.564 2030.22,195.73 2017.5,190C 1963.82,172.996 1910.16,155.996 1856.5,139C 1846.1,130.958 1843.6,120.791 1849,108.5C 1852.18,104.462 1856.02,101.462 1860.5,99.5 Z M 2296.5,778.5 C 2332.7,778.67 2354.86,796.336 2363,831.5C 2365.97,859.72 2355.47,881.22 2331.5,896C 2296.89,910.904 2268.73,903.071 2247,872.5C 2238.2,854.265 2237.2,835.598 2244,816.5C 2254.64,794.364 2272.14,781.697 2296.5,778.5 Z"/></g>
<g><path style="opacity:0.999" fill="#394b88" d="M 2323.5,99.5 C 2331.15,114.135 2338.32,129.135 2345,144.5C 2347.41,149.314 2349.24,154.314 2350.5,159.5C 2336.17,165.5 2321.83,171.5 2307.5,177.5C 2299.25,157.84 2290.59,138.34 2281.5,119C 2295.44,112.195 2309.44,105.695 2323.5,99.5 Z"/></g>
<g><path style="opacity:0.971" fill="#f1c231" d="M 2275.5,249.5 C 2287.89,253.613 2299.72,258.946 2311,265.5C 2315.6,274.641 2312.93,280.308 2303,282.5C 2300.1,282.089 2297.43,281.089 2295,279.5C 2294.83,279.833 2294.67,280.167 2294.5,280.5C 2298.57,291.04 2302.24,301.706 2305.5,312.5C 2304.42,320.046 2300.09,323.212 2292.5,322C 2290.41,321.208 2288.58,320.041 2287,318.5C 2282.8,308.245 2278.8,297.912 2275,287.5C 2272.38,295.726 2266.88,298.559 2258.5,296C 2253.37,291.826 2252.21,286.659 2255,280.5C 2259.06,271.378 2263.39,262.378 2268,253.5C 2270.26,251.501 2272.76,250.168 2275.5,249.5 Z"/></g>
<g><path style="opacity:1" fill="#394c88" d="M 2459.5,309.5 C 2461.14,309.286 2462.64,309.62 2464,310.5C 2472.3,328.941 2480.47,347.441 2488.5,366C 2488.18,367.653 2487.18,368.653 2485.5,369C 2472.59,374.705 2459.76,380.538 2447,386.5C 2438.03,367.393 2429.2,348.227 2420.5,329C 2420.64,328.228 2420.98,327.561 2421.5,327C 2434.38,321.391 2447.04,315.558 2459.5,309.5 Z"/></g>
<g><path style="opacity:0.993" fill="#f9b000" d="M 493.5,327.5 C 525.591,325.115 556.591,329.615 586.5,341C 626.539,360.397 649.706,392.23 656,436.5C 662.692,478.623 658.692,519.623 644,559.5C 625.332,601.163 593.499,625.997 548.5,634C 404.652,652.485 340.152,589.652 355,445.5C 364.09,384.739 398.59,347.239 458.5,333C 470.231,330.637 481.897,328.804 493.5,327.5 Z M 496.5,391.5 C 529.407,388.243 548.574,402.91 554,435.5C 559.175,469.972 558.508,504.305 552,538.5C 544.846,566.174 527.012,578.008 498.5,574C 482.674,571.839 471.841,563.339 466,548.5C 462.563,539.118 460.229,529.451 459,519.5C 456.248,490.832 456.582,462.165 460,433.5C 461.241,422.782 463.907,412.448 468,402.5C 469.5,400.333 471.333,398.5 473.5,397C 481.16,394.602 488.827,392.768 496.5,391.5 Z"/></g>
<g><path style="opacity:0.994" fill="#f9b000" d="M 34.5,331.5 C 79.8346,331.333 125.168,331.5 170.5,332C 194.555,333.246 218.221,336.912 241.5,343C 283.249,357.418 308.749,386.251 318,429.5C 323.959,462.826 323.959,496.159 318,529.5C 306.942,580.225 276.108,611.392 225.5,623C 208.282,626.203 190.949,628.536 173.5,630C 127.163,630.833 80.8297,630.667 34.5,629.5C 33.1669,530.137 33.1669,430.804 34.5,331.5 Z M 132.5,391.5 C 144.171,391.333 155.838,391.5 167.5,392C 189.866,394.38 205.366,405.88 214,426.5C 216.306,434.363 217.973,442.363 219,450.5C 219.667,469.833 219.667,489.167 219,508.5C 218.215,521.615 216.548,534.615 214,547.5C 211.836,557.323 205.67,562.49 195.5,563C 173.756,565.51 151.756,566.01 129.5,564.5C 129.333,507.499 129.5,450.499 130,393.5C 130.995,392.934 131.828,392.267 132.5,391.5 Z"/></g>
<g><path style="opacity:0.993" fill="#f9af00" d="M 699.5,331.5 C 729.502,331.333 759.502,331.5 789.5,332C 816.961,374.424 844.794,416.59 873,458.5C 880.505,470.172 887.505,482.172 894,494.5C 895.329,440.642 895.996,386.642 896,332.5C 925.093,331.505 954.26,331.171 983.5,331.5C 983.5,431.167 983.5,530.833 983.5,630.5C 953.498,630.667 923.498,630.5 893.5,630C 858.667,576.5 823.833,523 789,469.5C 788.667,522.833 788.333,576.167 788,629.5C 758.667,630.833 729.333,630.833 700,629.5C 699.5,530.167 699.333,430.834 699.5,331.5 Z"/></g>
<g><path style="opacity:0.997" fill="#f9b000" d="M 1034.5,331.5 C 1066.5,331.5 1098.5,331.5 1130.5,331.5C 1130.5,431.167 1130.5,530.833 1130.5,630.5C 1098.5,630.5 1066.5,630.5 1034.5,630.5C 1034.5,530.833 1034.5,431.167 1034.5,331.5 Z"/></g>
<g><path style="opacity:0.99" fill="#f9af00" d="M 1160.5,331.5 C 1248.17,331.5 1335.83,331.5 1423.5,331.5C 1423.83,353.742 1423.49,375.909 1422.5,398C 1394.84,398.5 1367.17,398.667 1339.5,398.5C 1339.67,475.501 1339.5,552.501 1339,629.5C 1307.57,630.496 1276.07,630.829 1244.5,630.5C 1243.17,553.488 1243.17,476.488 1244.5,399.5C 1216.84,398.667 1189.17,398.167 1161.5,398C 1161,397.5 1160.5,397 1160,396.5C 1159.18,374.761 1159.35,353.094 1160.5,331.5 Z"/></g>
<g><path style="opacity:0.993" fill="#f9b000" d="M 1500.5,331.5 C 1542.07,331.17 1583.57,331.503 1625,332.5C 1655.03,430.644 1685.37,528.644 1716,626.5C 1747.84,528.483 1779.67,430.483 1811.5,332.5C 1852.83,331.333 1894.16,331.167 1935.5,332C 1966.32,430.624 1996.99,529.291 2027.5,628C 2027.36,628.772 2027.02,629.439 2026.5,630C 1994.5,630.667 1962.5,630.667 1930.5,630C 1924.34,608.726 1919.01,587.226 1914.5,565.5C 1885.83,565.167 1857.16,565.5 1828.5,566.5C 1823.35,587.755 1818.02,608.922 1812.5,630C 1747.93,629.975 1683.26,629.808 1618.5,629.5C 1613.18,608.571 1608.02,587.571 1603,566.5C 1588.74,565.837 1574.41,565.504 1560,565.5C 1545.59,565.504 1531.26,565.837 1517,566.5C 1512.14,587.576 1506.97,608.576 1501.5,629.5C 1469.51,630.667 1437.51,630.833 1405.5,630C 1404.98,629.439 1404.64,628.772 1404.5,628C 1436.41,529.186 1468.41,430.353 1500.5,331.5 Z M 1560.5,397.5 C 1570.72,432.7 1580.38,468.2 1589.5,504C 1569.99,505.487 1550.32,505.987 1530.5,505.5C 1539.87,469.342 1549.87,433.342 1560.5,397.5 Z M 1871.5,397.5 C 1872.12,397.611 1872.62,397.944 1873,398.5C 1882.17,434.187 1891.33,469.853 1900.5,505.5C 1880.83,505.5 1861.17,505.5 1841.5,505.5C 1851.13,469.342 1861.13,433.342 1871.5,397.5 Z"/></g>
<g><path style="opacity:0.98" fill="#f1c231" d="M 2676.5,448.5 C 2677.38,448.369 2678.04,448.702 2678.5,449.5C 2684,461.167 2689.5,472.833 2695,484.5C 2695.75,485.635 2695.58,486.635 2694.5,487.5C 2672.17,497.667 2649.83,507.833 2627.5,518C 2626.17,518.667 2624.83,518.667 2623.5,518C 2617.87,506.576 2612.37,495.076 2607,483.5C 2606.25,482.365 2606.42,481.365 2607.5,480.5C 2630.71,470.058 2653.71,459.392 2676.5,448.5 Z"/></g>
<g><path style="opacity:0.966" fill="#f0c131" d="M 2406.5,532.5 C 2409.61,532.351 2412.61,532.851 2415.5,534C 2424.17,538 2432.83,542 2441.5,546C 2446.83,551.667 2446.83,557.333 2441.5,563C 2436.92,565.032 2432.42,564.865 2428,562.5C 2431.16,573.161 2434.66,583.828 2438.5,594.5C 2436.77,602.719 2431.77,605.885 2423.5,604C 2422.07,603.535 2420.9,602.701 2420,601.5C 2415.66,591.133 2411.32,580.799 2407,570.5C 2404.66,577.585 2399.83,580.418 2392.5,579C 2386.48,575.767 2384.65,570.934 2387,564.5C 2391.41,554.68 2396.08,545.014 2401,535.5C 2402.88,534.391 2404.71,533.391 2406.5,532.5 Z"/></g>
<g><path style="opacity:0.981" fill="#374b88" d="M 79.5,746.5 C 94.6233,744.692 108.957,747.192 122.5,754C 126.198,756.186 129.532,758.853 132.5,762C 126.35,769.317 119.683,776.15 112.5,782.5C 102.697,772.222 91.3636,769.722 78.5,775C 73.2271,780.739 73.2271,786.405 78.5,792C 92.3262,796.582 105.66,802.248 118.5,809C 132.102,821.484 135.268,836.318 128,853.5C 120.469,867.677 108.636,875.51 92.5,877C 74.2502,879.27 57.5836,875.27 42.5,865C 40.4429,863.281 38.7763,861.281 37.5,859C 43.6368,852.028 49.9701,845.195 56.5,838.5C 66.3158,849.272 78.3158,853.106 92.5,850C 98.3161,846.91 100.483,842.076 99,835.5C 96.4078,830.914 92.5744,827.748 87.5,826C 76.988,823.165 66.988,819.165 57.5,814C 44.0808,803.974 39.5808,790.807 44,774.5C 46.6284,765.741 51.7951,758.908 59.5,754C 66.0214,750.775 72.6881,748.275 79.5,746.5 Z"/></g>
<g><path style="opacity:0.984" fill="#374b88" d="M 926.5,746.5 C 944.337,744.584 961.337,747.417 977.5,755C 981.059,757.606 984.393,760.44 987.5,763.5C 981.382,770.24 975.382,777.073 969.5,784C 966.127,783.358 963.127,781.691 960.5,779C 946.612,772.718 932.945,773.051 919.5,780C 902.933,796.272 900.1,814.772 911,835.5C 918.971,845.319 929.304,850.319 942,850.5C 947.905,849.824 953.739,848.824 959.5,847.5C 959.5,840.167 959.5,832.833 959.5,825.5C 951.58,825.815 943.747,825.482 936,824.5C 935.168,816.479 935.335,808.479 936.5,800.5C 953.5,799.167 970.5,799.167 987.5,800.5C 988.666,822.492 988.833,844.492 988,866.5C 969.614,875.823 950.114,879.323 929.5,877C 893.08,870.579 873.414,848.912 870.5,812C 872.995,776.099 891.662,754.265 926.5,746.5 Z"/></g>
<g><path style="opacity:0.984" fill="#374b88" d="M 1127.5,746.5 C 1140.78,744.722 1153.11,747.222 1164.5,754C 1177.41,767.274 1178.91,781.774 1169,797.5C 1163.93,802.607 1158.43,807.107 1152.5,811C 1156.12,815.622 1160.12,819.955 1164.5,824C 1165.33,824.688 1166,824.521 1166.5,823.5C 1170.29,818.086 1173.96,812.586 1177.5,807C 1188.16,806.5 1198.83,806.333 1209.5,806.5C 1208.56,809.714 1207.06,812.714 1205,815.5C 1197.97,824.358 1191.14,833.358 1184.5,842.5C 1194.32,852.819 1204.32,862.986 1214.5,873C 1214.17,873.333 1213.83,873.667 1213.5,874C 1201.17,874.667 1188.83,874.667 1176.5,874C 1173.65,869.821 1170.15,866.321 1166,863.5C 1150.84,875.735 1133.67,879.568 1114.5,875C 1090.89,867.414 1081.72,851.58 1087,827.5C 1091.3,816.697 1098.8,809.031 1109.5,804.5C 1096.57,790.712 1094.73,775.712 1104,759.5C 1110.39,752.39 1118.23,748.057 1127.5,746.5 Z M 1133.5,768.5 C 1146.83,768.164 1151,774.164 1146,786.5C 1137.95,796.486 1131.62,795.486 1127,783.5C 1125.37,776.775 1127.53,771.775 1133.5,768.5 Z M 1125.5,822.5 C 1133.08,828.572 1140.24,835.239 1147,842.5C 1147.71,844.367 1147.21,845.867 1145.5,847C 1135.46,854.719 1125.96,854.219 1117,845.5C 1113.01,835.301 1115.84,827.634 1125.5,822.5 Z"/></g>
<g><path style="opacity:0.982" fill="#374b88" d="M 1354.5,746.5 C 1371.94,744.355 1388.27,747.522 1403.5,756C 1407.18,758.346 1410.18,761.346 1412.5,765C 1406.36,772.305 1399.7,779.138 1392.5,785.5C 1375.69,770.869 1358.86,770.869 1342,785.5C 1330.56,801.117 1329.56,817.45 1339,834.5C 1348.23,846.472 1360.4,850.972 1375.5,848C 1382.42,845.579 1388.42,841.745 1393.5,836.5C 1400.18,843.017 1407.02,849.35 1414,855.5C 1410.98,861.191 1406.48,865.691 1400.5,869C 1375.82,880.842 1351.49,880.175 1327.5,867C 1304.27,850.004 1295.1,827.17 1300,798.5C 1306.7,769.081 1324.86,751.747 1354.5,746.5 Z"/></g>
<g><path style="opacity:0.978" fill="#374b89" d="M 1768.5,746.5 C 1785.52,744.672 1801.86,747.172 1817.5,754C 1821.78,756.615 1825.78,759.615 1829.5,763C 1823.58,770.673 1817.08,777.839 1810,784.5C 1796.14,773.752 1780.97,771.585 1764.5,778C 1748.86,789.322 1743.36,804.489 1748,823.5C 1753.33,841.144 1765.33,850.144 1784,850.5C 1789.95,850.178 1795.62,848.844 1801,846.5C 1801.5,839.508 1801.67,832.508 1801.5,825.5C 1793.58,825.815 1785.75,825.482 1778,824.5C 1777.17,816.479 1777.34,808.479 1778.5,800.5C 1795.12,799.348 1811.79,799.182 1828.5,800C 1829.82,810.941 1830.49,822.107 1830.5,833.5C 1830.33,844.5 1830.17,855.5 1830,866.5C 1811.61,875.823 1792.11,879.323 1771.5,877C 1735.1,870.593 1715.43,848.927 1712.5,812C 1714.58,775.767 1733.25,753.934 1768.5,746.5 Z"/></g>
<g><path style="opacity:0.983" fill="#384b88" d="M 1920.5,746.5 C 1947.33,742.817 1969.83,750.817 1988,770.5C 2003.93,796.376 2004.59,822.71 1990,849.5C 1970.79,873.528 1945.96,882.362 1915.5,876C 1882.89,866.712 1865.89,845.045 1864.5,811C 1866.33,774.684 1884.99,753.184 1920.5,746.5 Z M 1927.5,774.5 C 1952.08,774.243 1965.41,786.41 1967.5,811C 1966.89,833.781 1955.39,846.615 1933,849.5C 1914.59,848.091 1903.26,838.424 1899,820.5C 1896.11,805.551 1899.94,792.718 1910.5,782C 1915.78,778.353 1921.45,775.853 1927.5,774.5 Z"/></g>
<g><path style="opacity:0.979" fill="#374b89" d="M 167.5,749.5 C 177.833,749.5 188.167,749.5 198.5,749.5C 198.5,765.167 198.5,780.833 198.5,796.5C 213.837,796.667 229.17,796.5 244.5,796C 245.491,780.578 245.824,765.078 245.5,749.5C 255.833,749.5 266.167,749.5 276.5,749.5C 276.667,790.835 276.5,832.168 276,873.5C 265.916,874.486 255.749,874.819 245.5,874.5C 245.5,857.167 245.5,839.833 245.5,822.5C 229.833,822.5 214.167,822.5 198.5,822.5C 198.667,839.503 198.5,856.503 198,873.5C 187.916,874.486 177.749,874.819 167.5,874.5C 167.5,832.833 167.5,791.167 167.5,749.5 Z"/></g>
<g><path style="opacity:0.964" fill="#374c88" d="M 318.5,749.5 C 328.833,749.5 339.167,749.5 349.5,749.5C 349.667,790.835 349.5,832.168 349,873.5C 343.913,874.155 338.746,874.488 333.5,874.5C 327.998,874.645 322.664,874.145 317.5,873C 318.488,831.698 318.822,790.531 318.5,749.5 Z"/></g>
<g><path style="opacity:0.985" fill="#374c89" d="M 391.5,749.5 C 410.503,749.333 429.503,749.5 448.5,750C 471.879,752.046 484.546,764.713 486.5,788C 484.504,810.665 472.171,823.665 449.5,827C 440.612,828.294 431.779,828.46 423,827.5C 422.825,843.074 422.325,858.574 421.5,874C 411.256,874.819 401.09,874.652 391,873.5C 390.173,832.096 390.34,790.762 391.5,749.5 Z M 422.5,774.5 C 430.97,774.12 439.303,774.953 447.5,777C 452.595,779.337 454.928,783.337 454.5,789C 454.081,794.506 451.415,798.506 446.5,801C 438.627,802.926 430.627,803.76 422.5,803.5C 422.5,793.833 422.5,784.167 422.5,774.5 Z"/></g>
<g><path style="opacity:0.985" fill="#374a86" d="M 520.5,749.5 C 539.503,749.333 558.503,749.5 577.5,750C 609.329,755.181 620.829,773.348 612,804.5C 604.951,817.798 593.785,825.298 578.5,827C 569.612,828.294 560.779,828.46 552,827.5C 551.825,843.074 551.325,858.574 550.5,874C 540.256,874.819 530.09,874.652 520,873.5C 519.173,832.096 519.34,790.762 520.5,749.5 Z M 551.5,774.5 C 560.769,773.882 569.769,775.049 578.5,778C 585.389,785.585 585.056,792.918 577.5,800C 569.416,802.885 561.083,803.885 552.5,803C 551.515,793.583 551.182,784.083 551.5,774.5 Z"/></g>
<g><path style="opacity:0.983" fill="#374b89" d="M 649.5,749.5 C 659.833,749.5 670.167,749.5 680.5,749.5C 680.667,790.835 680.5,832.168 680,873.5C 669.916,874.486 659.749,874.819 649.5,874.5C 649.5,832.833 649.5,791.167 649.5,749.5 Z"/></g>
<g><path style="opacity:0.984" fill="#374b87" d="M 722.5,749.5 C 734.171,749.333 745.838,749.5 757.5,750C 773.71,775.583 789.543,801.416 805,827.5C 806.023,826.4 806.523,825.067 806.5,823.5C 805.528,798.853 805.195,774.186 805.5,749.5C 815.5,749.5 825.5,749.5 835.5,749.5C 835.5,791.167 835.5,832.833 835.5,874.5C 823.829,874.667 812.162,874.5 800.5,874C 784.876,847.915 768.876,822.082 752.5,796.5C 751.673,822.164 751.507,847.831 752,873.5C 742,874.833 732,874.833 722,873.5C 721.173,832.096 721.34,790.762 722.5,749.5 Z"/></g>
<g><path style="opacity:0.979" fill="#374b88" d="M 1477.5,749.5 C 1487.85,749.168 1498.19,749.501 1508.5,750.5C 1525.65,791.291 1542.65,832.124 1559.5,873C 1548.32,874.642 1536.99,874.975 1525.5,874C 1522.17,866 1518.83,858 1515.5,850C 1500.17,849.333 1484.83,849.333 1469.5,850C 1466.17,858 1462.83,866 1459.5,874C 1448.51,874.5 1437.51,874.667 1426.5,874.5C 1426.74,871.353 1427.57,868.353 1429,865.5C 1445.66,827 1461.83,788.334 1477.5,749.5 Z M 1492.5,786.5 C 1497.34,799.027 1502.01,811.693 1506.5,824.5C 1497.14,824.832 1487.81,824.498 1478.5,823.5C 1482.78,810.982 1487.45,798.649 1492.5,786.5 Z"/></g>
<g><path style="opacity:0.983" fill="#384b8a" d="M 1586.5,749.5 C 1605.84,749.333 1625.17,749.5 1644.5,750C 1672.89,754.055 1684.72,770.222 1680,798.5C 1678.25,802.327 1676.25,805.993 1674,809.5C 1668.82,814.313 1663.32,818.479 1657.5,822C 1666.95,838.4 1676.78,854.567 1687,870.5C 1687.49,871.793 1687.66,873.127 1687.5,874.5C 1675.83,874.667 1664.16,874.5 1652.5,874C 1643.54,857.913 1634.71,841.747 1626,825.5C 1623,824.167 1620,824.167 1617,825.5C 1616.5,841.83 1616.33,858.163 1616.5,874.5C 1606.25,874.819 1596.08,874.486 1586,873.5C 1585.17,832.096 1585.34,790.762 1586.5,749.5 Z M 1616.5,774.5 C 1625.64,774.007 1634.64,774.841 1643.5,777C 1650.94,781.623 1652.44,787.789 1648,795.5C 1646.46,797.378 1644.62,798.878 1642.5,800C 1633.95,801.92 1625.29,802.754 1616.5,802.5C 1616.5,793.167 1616.5,783.833 1616.5,774.5 Z"/></g>
<g><path style="opacity:0.986" fill="#374a89" d="M 2297.5,809.5 C 2321.77,810.603 2333.27,823.269 2332,847.5C 2326.36,866.077 2313.86,874.243 2294.5,872C 2274.27,866.382 2266.1,853.215 2270,832.5C 2274.85,819.469 2284.02,811.802 2297.5,809.5 Z"/></g>
</svg>
