<svg width="72" height="13" viewBox="0 0 72 13" fill="none" xmlns="http://www.w3.org/2000/svg">
<path d="M36.4656 4.02919V9.56519H35.7376V5.43719L33.8976 9.56519H33.3856L31.5376 5.42919V9.56519H30.8096V4.02919H31.5936L33.6416 8.60519L35.6896 4.02919H36.4656ZM41.1429 5.18119L38.5029 11.6292H37.7509L38.6149 9.51719L36.8469 5.18119H37.6549L39.0309 8.73319L40.3909 5.18119H41.1429ZM41.2854 6.74919C41.3814 6.19452 41.5867 5.70119 41.9014 5.26919C42.2214 4.83185 42.616 4.49319 43.0854 4.25319C43.5547 4.00785 44.0614 3.88519 44.6054 3.88519C45.272 3.88519 45.8107 4.06119 46.2214 4.41319C46.6374 4.76519 46.872 5.24519 46.9254 5.85319H45.4214C45.352 5.62385 45.224 5.45052 45.0374 5.33319C44.856 5.21052 44.632 5.14919 44.3654 5.14919C43.944 5.14919 43.5787 5.29585 43.2694 5.58919C42.96 5.87719 42.7627 6.26385 42.6774 6.74919C42.6507 6.89852 42.6374 7.02919 42.6374 7.14119C42.6374 7.51452 42.7414 7.81052 42.9494 8.02919C43.1574 8.24785 43.4427 8.35719 43.8054 8.35719C44.0667 8.35719 44.3094 8.29585 44.5334 8.17319C44.7627 8.05052 44.9547 7.87452 45.1094 7.64519H46.6134C46.3467 8.25319 45.944 8.73319 45.4054 9.08519C44.8667 9.43185 44.264 9.60519 43.5974 9.60519C43.1174 9.60519 42.6987 9.51185 42.3414 9.32519C41.984 9.13852 41.7094 8.87452 41.5174 8.53319C41.3254 8.19185 41.2294 7.79452 41.2294 7.34119C41.2294 7.13852 41.248 6.94119 41.2854 6.74919ZM48.8138 9.62919C48.4298 9.62919 48.0885 9.55185 47.7898 9.39719C47.4911 9.24252 47.2591 9.02385 47.0938 8.74119C46.9338 8.45852 46.8538 8.13052 46.8538 7.75719C46.8538 7.25052 46.9738 6.78919 47.2138 6.37319C47.4538 5.95719 47.7845 5.63185 48.2058 5.39719C48.6271 5.15719 49.0965 5.03719 49.6138 5.03719C49.9978 5.03719 50.3391 5.11719 50.6378 5.27719C50.9418 5.43185 51.1765 5.65052 51.3418 5.93319C51.5071 6.21585 51.5898 6.54385 51.5898 6.91719C51.5898 7.42919 51.4671 7.89319 51.2218 8.30919C50.9818 8.71985 50.6485 9.04252 50.2218 9.27719C49.8005 9.51185 49.3311 9.62919 48.8138 9.62919ZM49.0058 8.45319C49.2298 8.45319 49.4298 8.38652 49.6058 8.25319C49.7871 8.11452 49.9258 7.93852 50.0218 7.72519C50.1231 7.50652 50.1738 7.27985 50.1738 7.04519C50.1738 6.77852 50.1018 6.57319 49.9578 6.42919C49.8138 6.28519 49.6325 6.21319 49.4138 6.21319C49.1845 6.21319 48.9818 6.28252 48.8058 6.42119C48.6351 6.55452 48.5018 6.73052 48.4058 6.94919C48.3098 7.16785 48.2618 7.39719 48.2618 7.63719C48.2618 7.89852 48.3311 8.10119 48.4698 8.24519C48.6085 8.38385 48.7871 8.45319 49.0058 8.45319ZM56.7262 5.10119L55.9422 9.56519H54.5742L54.6782 8.95719C54.5022 9.15452 54.2862 9.31452 54.0302 9.43719C53.7795 9.55452 53.5102 9.61319 53.2222 9.61319C52.7742 9.61319 52.4222 9.48785 52.1662 9.23719C51.9102 8.98119 51.7822 8.62652 51.7822 8.17319C51.7822 8.00252 51.7955 7.84785 51.8222 7.70919L52.2862 5.10119H53.6462L53.2222 7.52519C53.2062 7.61052 53.1982 7.69319 53.1982 7.77319C53.1982 7.99719 53.2595 8.17052 53.3822 8.29319C53.5102 8.41052 53.6862 8.46919 53.9102 8.46919C54.1662 8.46919 54.3822 8.39452 54.5582 8.24519C54.7395 8.09052 54.8595 7.87185 54.9182 7.58919L55.3582 5.10119H56.7262ZM58.5995 5.90919C58.8075 5.64252 59.0448 5.43452 59.3115 5.28519C59.5835 5.13052 59.8662 5.05319 60.1595 5.05319L59.9035 6.50119H59.5275C59.1862 6.50119 58.9168 6.57585 58.7195 6.72519C58.5222 6.86919 58.3915 7.12519 58.3275 7.49319L57.9595 9.56519H56.5915L57.3755 5.10119H58.7435L58.5995 5.90919ZM61.24 4.63719C61.0267 4.63719 60.856 4.58119 60.728 4.46919C60.6054 4.35185 60.544 4.20519 60.544 4.02919C60.544 3.78919 60.6374 3.58385 60.824 3.41319C61.0107 3.24252 61.2374 3.15719 61.504 3.15719C61.7174 3.15719 61.8854 3.21585 62.008 3.33319C62.1307 3.44519 62.192 3.59185 62.192 3.77319C62.192 4.00785 62.0987 4.21052 61.912 4.38119C61.7254 4.55185 61.5014 4.63719 61.24 4.63719ZM61.832 5.10119L61.048 9.56519H59.68L60.464 5.10119H61.832ZM64.4901 5.03719C65.0661 5.03719 65.5221 5.19452 65.8581 5.50919C66.1994 5.81852 66.3701 6.24252 66.3701 6.78119C66.3701 6.95719 66.3567 7.11452 66.3301 7.25319C66.3087 7.37585 66.2767 7.50652 66.2341 7.64519H63.1381C63.1327 7.67719 63.1301 7.72785 63.1301 7.79719C63.1301 8.03185 63.1941 8.21052 63.3221 8.33319C63.4501 8.45585 63.6207 8.51719 63.8341 8.51719C64.1754 8.51719 64.4367 8.37319 64.6181 8.08519H66.0741C65.8821 8.53852 65.5701 8.90919 65.1381 9.19719C64.7061 9.48519 64.2207 9.62919 63.6821 9.62919C63.1061 9.62919 62.6447 9.46919 62.2981 9.14919C61.9567 8.82919 61.7861 8.39452 61.7861 7.84519C61.7861 7.67985 61.8021 7.50919 61.8341 7.33319C61.9141 6.86919 62.0794 6.46385 62.3301 6.11719C62.5807 5.77052 62.8927 5.50385 63.2661 5.31719C63.6394 5.13052 64.0474 5.03719 64.4901 5.03719ZM64.9861 6.94919C64.9967 6.87452 65.0021 6.82385 65.0021 6.79719C65.0021 6.58385 64.9354 6.42119 64.8021 6.30919C64.6687 6.19185 64.4927 6.13319 64.2741 6.13319C64.0394 6.13319 63.8314 6.20519 63.6501 6.34919C63.4741 6.48785 63.3461 6.68785 63.2661 6.94919H64.9861ZM68.3104 5.90919C68.5184 5.64252 68.7558 5.43452 69.0224 5.28519C69.2944 5.13052 69.5771 5.05319 69.8704 5.05319L69.6144 6.50119H69.2384C68.8971 6.50119 68.6278 6.57585 68.4304 6.72519C68.2331 6.86919 68.1024 7.12519 68.0384 7.49319L67.6704 9.56519H66.3024L67.0864 5.10119H68.4544L68.3104 5.90919Z" fill="#DE1212"/>
<g clip-path="url(#clip0)">
<path fill-rule="evenodd" clip-rule="evenodd" d="M26.4154 0C27.4861 0 28.104 0.81801 27.7872 1.81971L24.842 11.1803C24.5278 12.182 23.3942 13 22.3235 13H12.3202C11.2494 13 10.6316 12.182 10.9484 11.1803L12.1736 7.28372H8.61052C7.63402 7.28372 6.60777 6.60286 6.19413 5.72362H12.6631L13.0689 4.43293H5.52393C4.54742 4.43293 3.52118 3.75207 3.10754 2.87283C7.14969 2.87283 11.1918 2.86793 15.2288 2.86793L12.7757 10.6586C12.6396 11.0872 12.904 11.4375 13.3648 11.4375H22.258C22.7162 11.4375 23.2031 11.0872 23.3366 10.6586L25.9546 2.33892C26.0907 1.91032 25.8237 1.5601 25.3656 1.5601C24.1665 1.5601 22.9701 1.5601 21.7711 1.5601L19.5537 8.55972C19.4228 8.97118 18.9568 9.20874 18.5169 9.08628C18.0771 8.96383 17.8232 8.52788 17.9541 8.11643L20.0301 1.5601H2.41639C1.43989 1.5601 0.41364 0.879239 0 0C8.80425 0 17.6111 0 26.4154 0Z" fill="#DE1212"/>
</g>
<defs>
<clipPath id="clip0">
<rect width="27.871" height="13" fill="white"/>
</clipPath>
</defs>
</svg>
