<svg width="25" height="25" viewBox="0 0 25 25" fill="none" xmlns="http://www.w3.org/2000/svg">
<circle cx="12.5" cy="12.5" r="12.5" fill="#C4C4C4"/>
<path d="M12.9922 18H11.0938V9.54688H12.9922V18ZM10.9766 7.35156C10.9766 7.0599 11.0677 6.81771 11.25 6.625C11.4375 6.43229 11.7031 6.33594 12.0469 6.33594C12.3906 6.33594 12.6562 6.43229 12.8438 6.625C13.0312 6.81771 13.125 7.0599 13.125 7.35156C13.125 7.63802 13.0312 7.8776 12.8438 8.07031C12.6562 8.25781 12.3906 8.35156 12.0469 8.35156C11.7031 8.35156 11.4375 8.25781 11.25 8.07031C11.0677 7.8776 10.9766 7.63802 10.9766 7.35156Z" fill="white"/>
</svg>
