<svg width="22" height="22" viewBox="0 0 22 22" fill="none" xmlns="http://www.w3.org/2000/svg">
<path d="M21.1631 5.08329L11.4483 0.160922L11.4443 0.158903C11.0117 -0.0564565 10.4977 -0.051644 10.0692 0.171794L5.90253 2.38314C5.86867 2.39749 5.83614 2.41489 5.80499 2.43491L0.811938 5.08488C0.311094 5.34712 0 5.86094 0 6.42645V15.5737C0 16.1392 0.311094 16.653 0.811938 16.9152L10.065 21.8262L10.0692 21.8284C10.2878 21.9423 10.5286 21.9994 10.7695 21.9994C11.0009 21.9994 11.2323 21.9468 11.4443 21.8412L21.1631 16.9168C21.6794 16.6586 22 16.1399 22 15.5625V6.43767C22 5.86021 21.6794 5.34145 21.1631 5.08329ZM10.6664 1.3136C10.7296 1.2812 10.8049 1.28056 10.8686 1.3118L19.962 5.91934L16.423 7.68127L7.53277 2.97675L10.6664 1.3136ZM10.1159 20.3943L1.4141 15.7759L1.40993 15.7737C1.33512 15.7347 1.28859 15.6581 1.28859 15.5737V7.00791L10.1159 11.6109V20.3943ZM10.767 10.4971L1.98825 5.91947L6.15725 3.70688L15.0034 8.38802L10.767 10.4971ZM20.7113 15.5624C20.7114 15.6487 20.6634 15.7261 20.5862 15.7645L11.4045 20.4168V11.6192L15.632 9.51449V11.7211C15.632 12.077 15.9205 12.3655 16.2763 12.3655C16.6322 12.3655 16.9207 12.077 16.9207 11.7211V8.87292L20.7113 6.98573V15.5624Z" fill="#DE1212"/>
</svg>
