<svg width="34" height="25" viewBox="0 0 34 25" fill="none" xmlns="http://www.w3.org/2000/svg">
<path d="M17.7243 21.8209H31.6808C32.0633 21.8209 32.3725 21.5158 32.3725 21.1385V15.6712H32.3155C30.1346 15.6712 28.3605 13.9211 28.3605 11.7695C28.3605 9.61792 30.1346 7.86776 32.3155 7.86776H32.3725V2.28811C32.3725 1.91079 32.0633 1.60571 31.6808 1.60571H12.4917" stroke="#FFBC3B" stroke-width="2" stroke-miterlimit="10" stroke-linecap="round" stroke-linejoin="round"/>
<path d="M32.3724 7.86768H32.3155C30.1345 7.86768 28.3605 9.61784 28.3605 11.7694C28.3605 13.921 30.1345 15.6711 32.3155 15.6711H32.3724" stroke="#FFBC3B" stroke-width="2" stroke-miterlimit="10" stroke-linecap="round" stroke-linejoin="round"/>
<path d="M17.7243 21.8209H3.75971C3.37723 21.8209 3.06799 21.5158 3.06799 21.1385V15.6712H3.12496C5.30591 15.6712 7.07996 13.9211 7.07996 11.7695C7.07996 9.61792 5.30591 7.86776 3.12496 7.86776H3.07613V2.28811C3.07613 1.91079 3.37723 1.60571 3.75971 1.60571H7.60078" stroke="#DE1212" stroke-width="2" stroke-miterlimit="10" stroke-linecap="round" stroke-linejoin="round"/>
<path d="M3.07629 7.86768H3.13326C5.31421 7.86768 7.08826 9.61784 7.08826 11.7694C7.08826 13.921 5.31421 15.6711 3.13326 15.6711H3.07629" stroke="#DE1212" stroke-width="2" stroke-miterlimit="10" stroke-linecap="round" stroke-linejoin="round"/>
<path d="M13.989 9.32886H21.4514" stroke="#DE1212" stroke-width="2" stroke-miterlimit="10" stroke-linecap="round" stroke-linejoin="round"/>
<path d="M13.989 9.32886H21.4514" stroke="#DE1212" stroke-width="2" stroke-miterlimit="10" stroke-linecap="round" stroke-linejoin="round"/>
<path d="M13.989 14.0977H21.4514" stroke="#FFBC3B" stroke-width="2" stroke-miterlimit="10" stroke-linecap="round" stroke-linejoin="round"/>
<g opacity="0.15">
<g opacity="0.15">
<g opacity="0.15">
<path opacity="0.15" d="M16.2757 23.3944H30.2322C30.6147 23.3944 30.9239 23.0893 30.9239 22.712V17.2447H30.8669C28.686 17.2447 26.9119 15.4946 26.9119 13.343C26.9119 11.1914 28.686 9.44124 30.8669 9.44124H30.9239V3.8616C30.9239 3.48427 30.6147 3.1792 30.2322 3.1792H11.0431" stroke="#DE1212" stroke-width="2" stroke-miterlimit="10" stroke-linecap="round" stroke-linejoin="round"/>
<path opacity="0.15" d="M30.9238 9.44116H30.8669C28.6859 9.44116 26.9119 11.1913 26.9119 13.3429C26.9119 15.4945 28.6859 17.2446 30.8669 17.2446H30.9238" stroke="#DE1212" stroke-width="2" stroke-miterlimit="10" stroke-linecap="round" stroke-linejoin="round"/>
</g>
<g opacity="0.15">
<path opacity="0.15" d="M16.2757 23.3944H2.31928C1.9368 23.3944 1.62756 23.0893 1.62756 22.712V17.2447H1.68453C3.86548 17.2447 5.63953 15.4946 5.63953 13.343C5.63953 11.1914 3.86548 9.44124 1.68453 9.44124H1.62756V3.8616C1.62756 3.48427 1.9368 3.1792 2.31928 3.1792H6.16035" stroke="#DE1212" stroke-width="2" stroke-miterlimit="10" stroke-linecap="round" stroke-linejoin="round"/>
<path opacity="0.15" d="M1.62756 9.44116H1.68453C3.86548 9.44116 5.63953 11.1913 5.63953 13.3429C5.63953 15.4945 3.86548 17.2446 1.68453 17.2446H1.62756" stroke="#DE1212" stroke-width="2" stroke-miterlimit="10" stroke-linecap="round" stroke-linejoin="round"/>
</g>
</g>
<g opacity="0.15">
<path opacity="0.15" d="M12.5404 10.9023H20.011" stroke="#DE1212" stroke-width="2" stroke-miterlimit="10" stroke-linecap="round" stroke-linejoin="round"/>
<path opacity="0.15" d="M12.5404 10.9023H20.011" stroke="#DE1212" stroke-width="2" stroke-miterlimit="10" stroke-linecap="round" stroke-linejoin="round"/>
<path opacity="0.15" d="M12.5404 15.6711H20.011" stroke="#DE1212" stroke-width="2" stroke-miterlimit="10" stroke-linecap="round" stroke-linejoin="round"/>
</g>
</g>
</svg>
